<svg width="249" height="255" fill="none" xmlns="http://www.w3.org/2000/svg"><circle cx="121.239" cy="127.239" r="93.5" transform="rotate(-29.21 121.239 127.239)" fill="url(#paint0_linear)" fill-opacity=".4"/><path d="M158.141 149.457c-2.232 1.324-7.85 4.503-16.856 9.538-9.005 5.035-14.656 8.156-16.952 9.365-6.485 3.4-11.575 5.605-15.27 6.615-3.694 1.01-6.071.568-7.131-1.327-.642-1.149-1.431-3.741-2.368-7.778a539.457 539.457 0 01-2.796-12.797c-.928-4.494-2.277-9.506-4.048-15.036-1.772-5.53-3.7-10.161-5.788-13.894-6.164-11.026-.392-21.49 17.317-31.39 17.709-9.902 29.645-9.34 35.81 1.686 2.087 3.733 5.022 7.802 8.806 12.207 3.784 4.405 7.347 8.179 10.689 11.323a535.233 535.233 0 019.437 9.084c2.949 2.911 4.744 4.941 5.387 6.09 1.059 1.895.191 4.152-2.604 6.77-2.796 2.618-7.34 5.8-13.633 9.544zm-43.104-37.409c3.421-1.913 6.533-3.05 9.336-3.411 2.803-.361 4.727.335 5.772 2.087l.049.086c.417.747 1.017 1.259 1.8 1.537.783.279 1.502.235 2.156-.131.654-.365 1.067-.955 1.24-1.767.173-.813.051-1.593-.367-2.339-3.756-6.719-10.625-7.666-20.605-2.839l-1.59-2.843c-.417-.747-1.017-1.259-1.8-1.537-.783-.279-1.502-.235-2.156.131-.654.365-1.067.955-1.24 1.767-.173.813-.051 1.593.367 2.339l1.589 2.843c-9.338 5.975-12.13 12.322-8.373 19.041.707 1.263 1.48 2.263 2.321 2.999a5.882 5.882 0 002.861 1.397 11.44 11.44 0 003.196.135c1.064-.105 2.348-.465 3.853-1.08a60.518 60.518 0 004.268-1.934 134.89 134.89 0 005.029-2.699c3.471-1.941 6.616-3.077 9.435-3.409 2.819-.333 4.726.391 5.722 2.172.995 1.78.613 3.784-1.146 6.011-1.76 2.227-4.375 4.312-7.846 6.252-3.421 1.913-6.533 3.05-9.336 3.411-2.803.361-4.727-.335-5.773-2.087l-.048-.086c-.417-.746-1.018-1.259-1.801-1.537-.782-.279-1.501-.235-2.155.131-.654.365-1.067.955-1.24 1.767-.173.813-.051 1.593.366 2.339 3.757 6.719 10.626 7.666 20.606 2.839l1.589 2.843c.418.747 1.018 1.259 1.801 1.537.783.279 1.501.235 2.155-.131.654-.365 1.068-.954 1.241-1.767.173-.813.051-1.593-.367-2.339l-1.589-2.843c9.338-5.975 12.129-12.322 8.372-19.041-4.11-7.35-11.799-7.875-23.068-1.575-.705.394-1.577.901-2.618 1.52a185.33 185.33 0 00-2.517 1.521c-.638.394-1.368.802-2.189 1.223-.821.422-1.515.716-2.082.882a8.967 8.967 0 01-1.699.328c-.565.052-1.053-.052-1.463-.313-.409-.261-.759-.65-1.048-1.166-.995-1.781-.601-3.792 1.184-6.033 1.784-2.241 4.387-4.319 7.808-6.231zm-13.871-24.809c-3.018 1.688-5.689 3.407-8.012 5.158a84.755 84.755 0 01-6.604-5.523c-1.998-1.86-3.205-3.164-3.623-3.91-.514-.919-.373-2.204.421-3.854 1.657.13 3.56-.068 5.711-.592 2.15-.524 4.131-1.292 5.942-2.305 1.812-1.013 3.503-2.298 5.076-3.855 1.572-1.558 2.738-3.076 3.495-4.555 1.822.187 2.99.74 3.504 1.66.417.746.895 2.457 1.434 5.133a84.713 84.713 0 011.246 8.519c-2.708 1.062-5.571 2.436-8.59 4.124z" fill="#6669C6" fill-opacity=".2"/><defs><linearGradient id="paint0_linear" x1="66.239" y1="12.739" x2="181.239" y2="208.239" gradientUnits="userSpaceOnUse"><stop stop-color="#6669C6"/><stop offset="1" stop-color="#6669C6" stop-opacity="0"/></linearGradient></defs></svg>