<svg width="35" height="41" fill="none" xmlns="http://www.w3.org/2000/svg"><path d="M28.535 21.47c-.02-3.33 1.49-5.84 4.536-7.69-1.704-2.442-4.282-3.785-7.68-4.044-3.218-.254-6.739 1.875-8.028 1.875-1.362 0-4.477-1.787-6.928-1.787C5.376 9.902 0 13.857 0 21.904c0 2.378.435 4.834 1.304 7.364 1.162 3.33 5.351 11.489 9.721 11.357 2.285-.054 3.902-1.621 6.875-1.621 2.886 0 4.38 1.621 6.93 1.621 4.408-.063 8.197-7.48 9.3-10.82-5.912-2.788-5.595-8.164-5.595-8.335zM23.403 6.577C25.88 3.637 25.654.962 25.581 0c-2.187.127-4.717 1.49-6.157 3.164-1.587 1.797-2.52 4.019-2.32 6.524 2.364.18 4.522-1.036 6.3-3.11z" fill="#fff"/></svg>