<svg width="51" height="57" fill="none" xmlns="http://www.w3.org/2000/svg"><path d="M1.301 0l6.684 6.439a6.531 6.531 0 009.264-.203 6.531 6.531 0 014.733-2.03H41c5.523 0 10 4.477 10 10V44c0 5.523-4.477 10-10 10H22.096a7.01 7.01 0 01-4.972-2.068 7.01 7.01 0 00-9.312-.564L1.302 56.5V0z" fill="#fff"/><path fill-rule="evenodd" clip-rule="evenodd" d="M14.307 35.032a1.047 1.047 0 001.48 1.48l8.362-8.363a1.046 1.046 0 000-1.48l-8.362-8.362a1.047 1.047 0 00-1.48 1.48l7.624 7.622-7.624 7.623zm12.543 0a1.047 1.047 0 101.48 1.48l8.363-8.363a1.046 1.046 0 000-1.48l-8.363-8.362a1.047 1.047 0 10-1.48 1.48l7.625 7.622-7.625 7.623z" fill="#8C8FD4"/></svg>