<svg width="51" height="180" fill="none" xmlns="http://www.w3.org/2000/svg"><path d="M.893 27.851V0L12.38 16.73l3.5 4.66a10 10 0 007.996 3.995h17.017c5.523 0 10 4.477 10 10v108.653c0 5.523-4.477 10-10 10H24.07a10 10 0 00-8.177 4.243l-3.513 4.988L1.31 180l-.416-79.155V27.851z" fill="#60B4F1"/><path d="M25.53 134.261v1.21H30v1.312h-9.953v-1.312h4.389v-1.026l-4.39-3.479v-1.634l4.827 3.801L30 129.052v1.606l-4.47 3.603zm1.872-11.908v4.169l2.598.937v1.353l-9.953-3.8v-1.149L30 120.056v1.346l-2.598.951zm-1.08 3.773v-3.384l-4.655 1.696 4.655 1.688zM30 111.066v1.32h-4.6v5.017H30v1.313h-9.953v-1.313h4.28v-5.017h-4.28v-1.32H30zm-2.598-7.95v4.17l2.598.937v1.353l-9.953-3.801v-1.148L30 100.819v1.347l-2.598.95zm-1.08 3.774v-3.384l-4.655 1.695 4.655 1.689zm-6.275-15.06H30v1.313h-8.873v3.568l3.944.178c1.322.068 2.315.205 2.98.41.666.2 1.156.497 1.47.888.31.392.47.916.479 1.573v.43h-1.073l-.014-.273c-.032-.424-.169-.75-.41-.978-.246-.227-.636-.4-1.169-.52-.533-.118-1.354-.202-2.461-.252l-4.826-.205V91.83zM11.33 44.841L23.162 75.85c.55 1.248 1.654 1.67 2.253.301l2.501-7.955-11.762-19.234c-.738-1.05-.541-2.125.27-1.2l14.8 16.52 6.264.518c.967-.48.972-1.36.491-1.922l-4.279-4.57 5.8-7.828c1.065-1.817.378-2.807-1.574-3.198L13.87 42.148c-2.402-.533-3.461.376-2.54 2.693z" fill="#fff"/></svg>