<svg width="51" height="180" fill="none" xmlns="http://www.w3.org/2000/svg"><path d="M.893 27.851V0L12.38 16.73l3.5 4.66a10 10 0 007.996 3.995h17.017c5.523 0 10 4.477 10 10v108.653c0 5.523-4.477 10-10 10H24.07a10 10 0 00-8.177 4.243l-3.513 4.988L1.31 180l-.416-79.155V27.851z" fill="#8C8FD4"/><path d="M21.127 126.774v4.799h2.98v-2.475c.014-1.039.28-1.85.8-2.433.52-.584 1.226-.875 2.12-.875.897 0 1.613.294 2.146.882.533.588.809 1.39.827 2.406v3.814h-9.953v-6.118h1.08zm4.06 4.799h3.74v-2.399c0-.652-.173-1.158-.52-1.518-.346-.365-.811-.547-1.394-.547-.56 0-1.003.176-1.327.526-.323.347-.49.841-.498 1.484v2.454zm2.215-13.057v4.17l2.598.937v1.353l-9.953-3.8v-1.149L30 116.219v1.347l-2.598.95zm-1.08 3.774v-3.384l-4.655 1.695 4.655 1.689zm-6.275-15.06H30v1.313h-8.873v3.568l3.944.178c1.322.068 2.315.205 2.98.41.666.2 1.156.497 1.47.889.31.392.47.916.479 1.572v.431h-1.073l-.014-.274c-.032-.424-.169-.75-.41-.977-.246-.228-.636-.401-1.169-.52-.533-.118-1.354-.203-2.461-.253l-4.826-.205v-6.132zm0-10.035H30v1.313h-8.873v3.568l3.944.178c1.322.068 2.315.205 2.98.41.666.2 1.156.497 1.47.888.31.392.47.917.479 1.573v.43h-1.073l-.014-.273c-.032-.424-.169-.75-.41-.978-.246-.227-.636-.401-1.169-.519-.533-.119-1.354-.203-2.461-.253l-4.826-.205v-6.132zm4.06-3.76v-2.474c.014-1.04.28-1.85.8-2.434.52-.583 1.226-.875 2.12-.875.897 0 1.613.294 2.146.882.533.588.809 1.39.827 2.406v3.808h-9.953v-1.313h4.06zm1.08 0h3.74v-2.4c0-.65-.173-1.157-.52-1.517-.346-.364-.811-.547-1.394-.547-.56 0-1.003.176-1.327.527-.323.346-.49.84-.498 1.483v2.454zM30 85.136v1.313h-9.953v-1.313H30zM11 57.5C11 65.507 17.493 72 25.5 72S40 65.507 40 57.5 33.507 43 25.5 43 11 49.493 11 57.5zm15.277-6.214a.26.26 0 01.259.259v4.92h4.92a.26.26 0 01.258.258v1.554a.26.26 0 01-.259.259h-4.92v4.92a.26.26 0 01-.258.258h-1.554a.26.26 0 01-.259-.259v-4.92h-4.92a.26.26 0 01-.258-.258v-1.554a.26.26 0 01.259-.259h4.92v-4.92a.26.26 0 01.258-.258h1.554z" fill="#fff"/></svg>