<svg width="51" height="180" fill="none" xmlns="http://www.w3.org/2000/svg"><path d="M.895 27.851V0l11.511 16.73 3.514 4.668a10 10 0 007.99 3.987H41c5.523 0 10 4.477 10 10v108.653c0 5.523-4.477 10-10 10H24.102a10 10 0 00-8.17 4.235l-3.526 4.996L1.313 180l-.417-79.155V27.851z" fill="#2A2C6E"/><path d="M29 136.243v1.319h-8.873v4.909H29v1.312h-9.953v-7.54H29zm-4.655-10.049c.975 0 1.827.164 2.556.493.725.328 1.279.792 1.662 1.394.382.602.574 1.303.574 2.106 0 .783-.192 1.478-.575 2.084-.387.607-.936 1.078-1.647 1.416-.715.332-1.543.503-2.481.512h-.718c-.957 0-1.803-.166-2.536-.499-.734-.332-1.295-.802-1.682-1.408-.392-.611-.588-1.308-.588-2.092 0-.797.194-1.499.581-2.105.383-.611.941-1.08 1.675-1.408.73-.329 1.58-.493 2.55-.493h.629zm-.643 1.306c-1.18 0-2.085.237-2.714.711-.633.474-.95 1.137-.95 1.989 0 .83.317 1.484.95 1.962.63.474 1.504.718 2.625.732h.732c1.144 0 2.044-.24 2.7-.718.652-.483.977-1.146.977-1.989 0-.848-.307-1.504-.922-1.969-.62-.465-1.507-.704-2.66-.718h-.738zm-4.655-4.97l8.121-3.254-8.121-3.254v-1.702H29v1.313h-3.876l-4.184-.123 8.06 3.267v1.005l-8.04 3.261 4.164-.13H29v1.313h-9.953v-1.696zm5.298-18.183c.975 0 1.827.164 2.556.492.725.328 1.279.793 1.662 1.394.382.602.574 1.304.574 2.106 0 .784-.192 1.479-.575 2.085-.387.606-.936 1.078-1.647 1.415-.715.333-1.543.503-2.481.513h-.718c-.957 0-1.803-.167-2.536-.499-.734-.333-1.295-.803-1.682-1.409-.392-.61-.588-1.308-.588-2.091 0-.798.194-1.5.581-2.106.383-.611.941-1.08 1.675-1.408.73-.328 1.58-.492 2.55-.492h.629zm-.643 1.305c-1.18 0-2.085.237-2.714.711-.633.474-.95 1.137-.95 1.99 0 .829.317 1.483.95 1.961.63.474 1.504.718 2.625.732h.732c1.144 0 2.044-.239 2.7-.718.652-.483.977-1.146.977-1.989 0-.848-.307-1.504-.922-1.969-.62-.465-1.507-.704-2.66-.718h-.738zm-4.655-4.641h8.88v-3.425h-8.88V96.28h8.88v-3.404h-8.88v-1.313h8.92V90.56l3.432.123v1.128H29v10.52h-9.953v-1.319zm4.06-13.29v-2.474c.014-1.039.28-1.85.8-2.433.52-.584 1.226-.875 2.12-.875.897 0 1.613.293 2.146.881.533.588.809 1.39.827 2.407v3.807h-9.953v-1.312h4.06zm1.08 0h3.74v-2.399c0-.651-.173-1.157-.52-1.517-.346-.365-.811-.547-1.394-.547-.56 0-1.003.175-1.327.526-.323.346-.49.841-.498 1.484v2.454zm4.42-35.221a10.207 10.207 0 01-.86 4.138c-.565 1.272-1.383 2.356-2.38 3.153L24.22 57.71c.712-.57 1.296-1.344 1.7-2.253a7.3 7.3 0 00.616-2.956 7.3 7.3 0 00-.615-2.956c-.405-.909-.989-1.683-1.701-2.253l1.146-2.082c.998.797 1.816 1.88 2.381 3.153a10.2 10.2 0 01.86 4.138zm-11.393-5c0 .495.122.978.35 1.389a2.2 2.2 0 00.929.92c.379.19.795.24 1.197.143.402-.096.77-.335 1.06-.684.29-.35.487-.795.567-1.28a2.97 2.97 0 00-.118-1.445 2.457 2.457 0 00-.763-1.122 1.83 1.83 0 00-1.15-.421 1.747 1.747 0 00-.796.184 2.07 2.07 0 00-.675.54c-.193.234-.346.51-.449.815a2.93 2.93 0 00-.152.961zm0 10c0 .495.122.978.35 1.389a2.2 2.2 0 00.929.92c.379.19.795.24 1.197.143.402-.096.77-.335 1.06-.684.29-.35.487-.795.567-1.28a2.97 2.97 0 00-.118-1.445 2.457 2.457 0 00-.763-1.122 1.83 1.83 0 00-1.15-.421 1.747 1.747 0 00-.796.184 2.07 2.07 0 00-.675.54c-.193.234-.346.51-.449.815a2.93 2.93 0 00-.152.961z" fill="#fff"/><path d="M40 50.33l-1.036 2.17-7.25-5V40a2.95 2.95 0 00-.157-.957 2.583 2.583 0 00-.448-.812 2.09 2.09 0 00-.673-.542 1.764 1.764 0 00-.793-.189h-14.5c-.272 0-.542.064-.793.19-.252.125-.48.309-.673.541a2.583 2.583 0 00-.449.812 2.95 2.95 0 00-.157.957v25c0 .328.053.654.157.957.104.304.257.58.45.812.192.232.42.416.672.542.251.125.52.19.793.189h14.5c.272 0 .541-.064.793-.19.252-.125.48-.309.672-.541.193-.232.345-.508.45-.812a2.95 2.95 0 00.156-.957V53.75h2.072V65c0 1.326-.437 2.598-1.214 3.535-.777.938-1.83 1.465-2.93 1.465h-14.5c-.543 0-1.082-.13-1.585-.38a4.185 4.185 0 01-1.344-1.084 5.17 5.17 0 01-.898-1.622A5.908 5.908 0 0111 65V40c0-.657.107-1.307.315-1.914a5.17 5.17 0 01.898-1.622 4.185 4.185 0 011.344-1.084 3.535 3.535 0 011.586-.38h14.5c1.099 0 2.152.527 2.93 1.465.776.937 1.213 2.209 1.213 3.535v6.044L40 50.33z" fill="#fff"/></svg>