<svg width="241" height="247" fill="none" xmlns="http://www.w3.org/2000/svg"><circle cx="117.5" cy="123.5" r="92.5" transform="rotate(-24.89 117.5 123.5)" fill="#6669C6" fill-opacity=".1"/><path d="M136.42 129.803c21.882-10.153 30.982-30.616 22.069-49.826s-30.22-25.056-52.102-14.903L64.392 84.559c-1.704.79-2.525 2.639-1.834 4.128l21.548 46.442-13.367 6.202c-1.704.791-2.525 2.639-1.834 4.128l4.731 10.197c.691 1.49 2.633 2.056 4.336 1.266l13.368-6.203 3.337 7.193-13.368 6.202c-1.703.79-2.524 2.639-1.833 4.128l4.171 8.99c.691 1.49 2.633 2.057 4.337 1.266l13.367-6.202 5.423 11.687c.691 1.489 2.632 2.056 4.336 1.266l15.054-6.985c1.704-.791 2.525-2.639 1.834-4.129l-5.423-11.687 41.501-19.256c1.704-.79 2.525-2.639 1.834-4.128l-4.171-8.99c-.691-1.49-2.633-2.057-4.337-1.266l-41.501 19.256-3.337-7.192 23.856-11.069zM89.7 91.594l20.236-9.39c12.011-5.572 22.286-2.388 27 7.774 4.78 10.301.641 20.341-11.698 26.066l-19.908 9.237L89.7 91.594z" fill="#fff" fill-opacity=".3"/></svg>