<svg width="265" height="394" fill="none" xmlns="http://www.w3.org/2000/svg"><path stroke="#6669C6" stroke-opacity=".2" stroke-dasharray="2 2" d="M.5 0v393m24-393v393m24-393v393m24-393v393m24-393v393m24-393v393m24-393v393m24-393v393m24-393v393m24-393v393m24-393v393m24-393v393"/><path fill="url(#paint0_linear)" d="M0 0h75v73H0z"/><path stroke="#8C8FD4" stroke-width="2" d="M76 0v73"/><path fill="url(#paint1_linear)" d="M0 107h120v73H0z"/><path stroke="#8C8FD4" stroke-width="2" d="M121 107v73"/><path fill="url(#paint2_linear)" d="M0 214h168v73H0z"/><path stroke="#8C8FD4" stroke-width="2" d="M169 214v73"/><path fill="url(#paint3_linear)" d="M0 321h216v73H0z"/><path stroke="#8C8FD4" stroke-width="2" d="M217 321v73"/><defs><linearGradient id="paint0_linear" x1="75" y1="37" x2="-7.5" y2="37" gradientUnits="userSpaceOnUse"><stop stop-color="#B3B4E3"/><stop offset="1" stop-color="#B3B4E3" stop-opacity="0"/></linearGradient><linearGradient id="paint1_linear" x1="120" y1="144" x2="-12" y2="144" gradientUnits="userSpaceOnUse"><stop stop-color="#B3B4E3"/><stop offset="1" stop-color="#B3B4E3" stop-opacity="0"/></linearGradient><linearGradient id="paint2_linear" x1="168" y1="251" x2="-16.8" y2="251" gradientUnits="userSpaceOnUse"><stop stop-color="#B3B4E3"/><stop offset="1" stop-color="#B3B4E3" stop-opacity="0"/></linearGradient><linearGradient id="paint3_linear" x1="216" y1="358" x2="-21.6" y2="358" gradientUnits="userSpaceOnUse"><stop stop-color="#B3B4E3"/><stop offset="1" stop-color="#B3B4E3" stop-opacity="0"/></linearGradient></defs></svg>