<svg width="30" height="30" fill="none" xmlns="http://www.w3.org/2000/svg"><circle cx="15" cy="15" r="14" stroke="#8C8FD4" stroke-width="2"/><path d="M10.333 28.206v-6.44l-4.806 3.547c1.353 1.26 2.986 2.24 4.806 2.893zm9.334 0c1.82-.653 3.453-1.633 4.806-2.893l-4.806-3.593v6.486zm-17.874-8.54a8.3 8.3 0 00.56 1.354l1.82-1.354h-2.38zm24.034 0l1.82 1.354c.186-.42.373-.887.56-1.354h-2.38z" fill="#2A2C6E"/><path d="M11.033 17.8H1.28c.14.654.327 1.26.513 1.867h2.38l-1.82 1.353c.374.794.794 1.494 1.307 2.194l4.807-3.547h1.866v.933l-5.46 4.014.654.653 4.806-3.5v6.44c.607.233 1.214.373 1.867.513V17.8h-1.167zm17.687 0H17.8v10.92c.653-.14 1.26-.326 1.867-.513v-6.44l4.806 3.5c.654-.607 1.214-1.26 1.774-1.96l-4.994-3.64h3.174l2.846 2.1a5.6 5.6 0 00.374-.747l-1.82-1.353h2.38c.186-.607.373-1.213.513-1.867z" fill="#fff"/><path d="M3.66 23.213c.373.513.747.98 1.167 1.447l5.506-4.014v-.933H8.467l-4.807 3.5zm17.64-3.547l4.993 3.64c.187-.233.327-.466.514-.7.046-.046.046-.093.093-.093.14-.233.327-.513.467-.747l-2.94-2.1H21.3z" fill="#ED4C5C"/><path d="M19.667 1.793v6.44l4.806-3.546c-1.353-1.26-2.986-2.24-4.806-2.894zm-9.334 0c-1.82.654-3.453 1.634-4.806 2.894l4.806 3.593V1.793zm17.874 8.541a8.308 8.308 0 00-.56-1.354l-1.82 1.354h2.38zm-24.034 0L2.353 8.98c-.186.467-.373.887-.56 1.354h2.38z" fill="#2A2C6E"/><path d="M18.967 12.2h9.706c-.14-.653-.326-1.26-.513-1.867h-2.38L27.6 8.98a12.96 12.96 0 00-1.307-2.194l-4.76 3.547h-1.866V9.4l5.46-4.014-.654-.653-4.806 3.5v-6.44c-.607-.233-1.214-.373-1.867-.513V12.2h1.167zm-17.687 0H12.2V1.28c-.653.14-1.26.326-1.867.513v6.44l-4.806-3.5c-.654.607-1.214 1.26-1.774 1.96l4.994 3.64H5.573l-2.846-2.1a5.6 5.6 0 00-.374.747l1.82 1.353h-2.38c-.186.607-.373 1.213-.513 1.867z" fill="#fff"/><path d="M26.34 6.787a17.55 17.55 0 00-1.167-1.447l-5.506 4.013v.934h1.866l4.807-3.5zM8.7 10.334l-4.947-3.64c-.186.233-.326.466-.513.7-.047.046-.047.093-.093.093-.14.233-.327.513-.467.747l2.847 2.1H8.7z" fill="#ED4C5C"/><path d="M28.72 12.2H17.8V1.28C16.913 1.093 15.98 1 15 1c-.98 0-1.913.093-2.8.28V12.2H1.28C1.093 13.087 1 14.02 1 15c0 .98.093 1.913.28 2.8H12.2v10.92c.887.187 1.82.28 2.8.28.98 0 1.913-.093 2.8-.28V17.8h10.92c.187-.887.28-1.82.28-2.8 0-.98-.093-1.913-.28-2.8z" fill="#ED4C5C"/></svg>