<svg width="22" height="21" fill="none" xmlns="http://www.w3.org/2000/svg"><path d="M10.59 0C4.742 0 0 4.702 0 10.5S4.742 21 10.59 21s10.59-4.702 10.59-10.5S16.438 0 10.59 0zm1.501 8.808a.19.19 0 01.19.187v.638a.189.189 0 01-.19.187H8.876c-.007.103-.007.214-.007.324v.844h3.22c.104 0 .189.084.189.187v.637a.189.189 0 01-.19.188H9.005c.362 1.453 1.449 2.31 3.068 2.31.47 0 .877-.027 1.225-.095a.188.188 0 01.224.183V15.4a.188.188 0 01-.151.183c-.376.08-.81.12-1.307.12-2.596 0-4.326-1.379-4.733-3.704H6.62a.189.189 0 01-.19-.188v-.637a.19.19 0 01.19-.188h.617v-.864c0-.103 0-.207.007-.3H6.62a.189.189 0 01-.19-.188v-.637a.19.19 0 01.19-.188h.75c.465-2.208 2.174-3.513 4.694-3.513.494 0 .931.044 1.307.126a.186.186 0 01.149.183V6.61h.002c0 .12-.109.207-.227.183a6.405 6.405 0 00-1.222-.103c-1.546 0-2.61.785-3.016 2.119h3.035z" fill="#8C8FD4"/></svg>