<svg width="22" height="17" fill="none" xmlns="http://www.w3.org/2000/svg"><path d="M21.267 15.903l-1.086-6.23c-.016-.098-.108-.168-.213-.168h-7.06c-.106 0-.198.07-.214.168l-1.085 6.23c-.003.01-.003.022-.003.032 0 .11.098.201.216.201h9.231c.011 0 .025 0 .035-.002.116-.018.197-.12.178-.231zM8.575 9.673c-.016-.098-.108-.168-.213-.168H1.3c-.105 0-.197.07-.213.168l-1.085 6.23c-.003.01-.003.022-.003.032 0 .11.097.201.216.201h9.231c.01 0 .024 0 .035-.002.119-.018.197-.12.178-.231l-1.085-6.23zM6.046 7.495h9.231c.01 0 .024 0 .035-.002.119-.018.197-.12.178-.231l-1.085-6.23c-.016-.098-.108-.168-.213-.168h-7.06c-.106 0-.198.07-.214.168l-1.085 6.23c-.003.01-.003.022-.003.032 0 .11.097.201.216.201z" fill="#8C8FD4"/></svg>