<svg width="45" height="45" fill="none" xmlns="http://www.w3.org/2000/svg"><circle cx="22.5" cy="22.5" r="22.5" fill="#fff"/><path d="M20.4 23h1.927c1.06 0 2.076.5 2.826 1.387.75.889 1.17 2.094 1.17 3.35h-6.218l.001 1.053h7.106v-1.053a6.684 6.684 0 00-.787-3.158h2.564c.84 0 1.662.281 2.372.813.71.53 1.278 1.29 1.639 2.188-2.1 3.285-5.502 5.42-9.34 5.42-2.453 0-4.531-.621-6.219-1.71v-9.794c1.081.183 2.101.702 2.958 1.504zm-3.847 7.895c0 .279-.094.547-.26.744a.824.824 0 01-.628.308h-1.777a.824.824 0 01-.628-.308 1.159 1.159 0 01-.26-.744V21.42c0-.28.094-.547.26-.744a.824.824 0 01.628-.309h1.777c.235 0 .461.111.628.309.166.197.26.465.26.744v9.474zM28.1 16.158c.707 0 1.385.333 1.885.925.5.592.78 1.395.78 2.233 0 .837-.28 1.64-.78 2.233-.5.592-1.178.925-1.885.925-.706 0-1.384-.333-1.884-.925-.5-.593-.78-1.396-.78-2.233 0-.838.28-1.641.78-2.233.5-.592 1.178-.925 1.884-.925zM21.883 13c.706 0 1.384.333 1.884.925.5.592.78 1.395.78 2.233 0 .837-.28 1.64-.78 2.233-.5.592-1.178.925-1.884.925-.707 0-1.385-.333-1.885-.925-.5-.592-.78-1.396-.78-2.233 0-.838.28-1.64.78-2.233.5-.592 1.178-.925 1.885-.925z" fill="#8C8FD4"/></svg>