<svg width="225" height="251" fill="none" xmlns="http://www.w3.org/2000/svg"><path d="M142.219 43.51A92.497 92.497 0 0040.064 54.827 92.5 92.5 0 10142.22 43.51zm-14.851 24.233l17.679 9.175a2.647 2.647 0 011.313 3.101 2.65 2.65 0 01-.6 1.047l-38.452 40.125 15.1 2.782-7.709 8.027-15.152-3-23.501 24.4 45.676 23.704a2.642 2.642 0 01.693 4.155l-11.083 11.617a3.54 3.54 0 01-4.182.696l-69.76-36.203 32.46-33.715-15.1-2.799 7.706-7.821 15.127 2.813L123.2 68.481a3.513 3.513 0 014.175-.734l-.006-.004z" fill="url(#paint0_linear)" fill-opacity=".2"/><defs><linearGradient id="paint0_linear" x1="103.933" y1="30.935" x2="78.351" y2="218.792" gradientUnits="userSpaceOnUse"><stop stop-color="#6669C6"/><stop offset="1" stop-color="#6669C6" stop-opacity="0"/></linearGradient></defs></svg>