<svg width="45" height="45" fill="none" xmlns="http://www.w3.org/2000/svg"><circle cx="22.5" cy="22.5" r="22.5" fill="#fff"/><path d="M32 34.215H13V31.9c0-2.545 4.275-4.627 9.5-4.627S32 29.355 32 31.9v2.314zM17.75 19.177h9.5v1.157c0 2.544-2.137 4.627-4.75 4.627s-4.75-2.082-4.75-4.627v-1.157zm13.063-5.784c-.713 0-1.188.463-1.188 1.157v1.157h-1.781l-1.663-3.47c-.119-.232-.237-.463-.475-.58-.593-.578-1.543-.693-2.375-.346l-.831.231-.831-.347c-.832-.347-1.782-.231-2.375.347-.238.232-.357.463-.475.694l-1.663 3.47h-1.781V14.55c0-.694-.475-1.157-1.188-1.157-.712 0-1.187.463-1.187 1.157v1.157c0 1.272 1.069 2.313 2.375 2.313h14.25c1.306 0 2.375-1.041 2.375-2.313V14.55c0-.579-.475-1.157-1.188-1.157z" fill="#8C8FD4"/></svg>