<svg width="144" height="84" fill="none" xmlns="http://www.w3.org/2000/svg"><path d="M19.688 68.008c0-1.576-.554-2.82-1.66-3.73-1.107-.925-3.132-1.798-6.075-2.618-2.943-.833-5.091-1.738-6.445-2.715-1.927-1.38-2.89-3.19-2.89-5.43 0-2.174.891-3.938 2.675-5.292 1.797-1.367 4.089-2.051 6.875-2.051 1.888 0 3.574.364 5.059 1.094 1.497.729 2.656 1.744 3.476 3.047.82 1.302 1.23 2.753 1.23 4.355h-2.421c0-1.94-.664-3.496-1.992-4.668-1.329-1.185-3.112-1.777-5.352-1.777-2.175 0-3.906.488-5.195 1.465-1.29.963-1.934 2.226-1.934 3.789 0 1.445.58 2.623 1.738 3.535 1.16.911 3.015 1.718 5.567 2.422 2.552.69 4.485 1.412 5.8 2.168 1.316.742 2.305 1.634 2.97 2.675.663 1.042.995 2.272.995 3.692 0 2.24-.898 4.036-2.695 5.39-1.784 1.355-4.14 2.032-7.07 2.032-2.005 0-3.848-.358-5.528-1.075C5.15 73.6 3.88 72.598 3.008 71.31c-.86-1.29-1.29-2.767-1.29-4.434h2.403c0 2.005.749 3.587 2.246 4.746 1.498 1.159 3.49 1.738 5.977 1.738 2.213 0 3.99-.488 5.332-1.465 1.34-.976 2.012-2.272 2.012-3.886zm26.914-19.395h-9.746V75h-2.403V48.613h-9.726v-2.05h21.875v2.05zM49.766 36h-2.403L31.016 11.664V36h-2.422V7.562h2.422l16.367 24.356V7.563h2.383V36zm90 0h-2.403l-16.347-24.336V36h-2.422V7.562h2.422l16.367 24.356V7.563h2.383V36zm-22.77 27.418V75h-2.402V46.562h9.687c2.956 0 5.287.756 6.992 2.266 1.719 1.51 2.579 3.587 2.579 6.23 0 2.67-.827 4.734-2.481 6.192-1.641 1.445-4.023 2.168-7.148 2.168h-7.227zm0-2.031h7.285c2.331 0 4.108-.554 5.332-1.66 1.224-1.107 1.836-2.65 1.836-4.63 0-1.965-.612-3.528-1.836-4.687-1.211-1.172-2.936-1.77-5.175-1.797h-7.442v12.774z" fill="#2A2C6E"/><path d="M63.086 22.584l38.428 38.532" stroke="#8C8FD4" stroke-width="5"/><circle cx="82" cy="42" r="28.5" stroke="#2A2C6E" stroke-width="3"/></svg>