<svg width="45" height="45" fill="none" xmlns="http://www.w3.org/2000/svg"><circle cx="22.5" cy="22.5" r="22.5" fill="#fff"/><path d="M27.667 34.46c-.625.016-2.18.024-4.667.024-2.486 0-4.042-.008-4.667-.024-1.764-.047-3.093-.181-3.99-.402-.895-.22-1.343-.59-1.343-1.111 0-.316.139-.95.417-1.904.277-.954.583-1.955.916-3.003.334-1.049.64-2.255.917-3.619.278-1.364.417-2.558.417-3.583 0-3.027 2.444-4.54 7.333-4.54s7.333 1.513 7.333 4.54c0 1.025.14 2.22.417 3.583.278 1.364.583 2.57.917 3.619.333 1.048.639 2.05.916 3.003.278.954.417 1.588.417 1.904 0 .52-.448.89-1.344 1.111-.896.221-2.225.355-3.99.402zM23 21.595c.944 0 1.733.126 2.365.378.632.253.954.623.968 1.112v.024a.78.78 0 00.198.532c.132.15.288.224.469.224.18 0 .337-.074.469-.224a.779.779 0 00.198-.532c0-1.845-1.334-2.846-4-3.004v-.78a.779.779 0 00-.198-.532.606.606 0 00-.469-.225.606.606 0 00-.469.224.779.779 0 00-.198.533v.78c-2.666.158-4 1.159-4 3.004 0 .346.046.646.136.898.09.252.236.461.437.627.202.165.42.3.657.402.236.102.548.177.937.225.389.047.764.079 1.125.094.361.016.82.024 1.375.024.958 0 1.753.13 2.385.39.632.26.948.635.948 1.123 0 .49-.316.864-.948 1.124-.632.26-1.427.39-2.385.39-.944 0-1.733-.126-2.365-.378-.632-.253-.954-.623-.968-1.112v-.024a.778.778 0 00-.198-.532.606.606 0 00-.469-.224.606.606 0 00-.469.224.779.779 0 00-.198.532c0 1.845 1.334 2.846 4 3.004v.78a.78.78 0 00.198.533c.132.15.288.224.469.224.18 0 .337-.075.469-.224a.779.779 0 00.198-.533v-.78c2.666-.158 4-1.159 4-3.004 0-2.018-1.556-3.027-4.667-3.027a44.668 44.668 0 00-1.438.035 6.74 6.74 0 01-.604 0 3.014 3.014 0 01-.541-.058 2.16 2.16 0 01-.396-.13.544.544 0 01-.271-.237.758.758 0 01-.083-.366c0-.49.32-.864.958-1.124.639-.26 1.43-.39 2.375-.39zm0-6.811c-.833 0-1.597.047-2.292.142a20.267 20.267 0 01-.74-1.928c-.2-.622-.301-1.036-.301-1.241 0-.252.18-.505.541-.757.334.22.757.402 1.271.544.514.142 1.021.213 1.521.213s1.007-.071 1.52-.213c.515-.142.938-.323 1.272-.544.36.252.541.505.541.757 0 .205-.1.619-.302 1.241a20.238 20.238 0 01-.74 1.928A17.05 17.05 0 0023 14.784z" fill="#8C8FD4"/></svg>