<svg width="237" height="237" fill="none" xmlns="http://www.w3.org/2000/svg"><circle cx="118.5" cy="118.5" r="92.5" transform="rotate(-19.14 118.5 118.5)" fill="#A3A4C7" fill-opacity=".09"/><path d="M169.975 105.502c3.977 5.554 4.511 12.405 1.603 20.555-2.908 8.15-8.643 16.004-17.204 23.562l6.823 9.528c.364.508.401 1.113.112 1.814-.289.701-.84 1.343-1.653 1.925l-11.764 8.424c-.755.541-1.532.837-2.331.887-.799.05-1.367-.16-1.705-.632l-6.823-9.528a102.44 102.44 0 01-12.319 6.268c-4.144 1.76-7.671 3.063-10.579 3.911a85.757 85.757 0 01-8.32 2.004c-2.638.489-4.476.775-5.514.86-1.038.084-1.78.122-2.227.112-1.533-.055-2.124-.758-1.772-2.108l3.712-13.777c.147-.654.659-1.35 1.536-2.088.82-.697 1.634-1.033 2.442-1.008l.253-.016c9.137-1.107 17.82-3.893 26.048-8.357a59.221 59.221 0 006.76-4.182c4.706-3.37 8.286-7.114 10.741-11.233 2.455-4.119 2.656-7.613.603-10.48-.728-1.016-1.852-1.666-3.374-1.95a16.003 16.003 0 00-4.556-.196c-1.517.153-3.703.689-6.56 1.609-2.856.92-5.189 1.712-6.999 2.376-1.809.664-4.555 1.738-8.238 3.222a1176.875 1176.875 0 00-6.334 2.477 257.87 257.87 0 01-6.392 2.395c-2.72.987-4.939 1.724-6.655 2.212-1.716.487-3.818 1.018-6.307 1.593-2.49.574-4.595.915-6.32 1.024-1.723.109-3.623.124-5.7.047-2.077-.078-3.862-.392-5.355-.943-1.493-.551-2.967-1.321-4.422-2.31a15.025 15.025 0 01-3.782-3.716c-3.587-5.009-3.885-11.44-.895-19.291 2.99-7.852 8.655-15.588 16.996-23.208l-7.017-9.8c-.338-.472-.355-1.078-.05-1.817.305-.74.835-1.381 1.59-1.922l11.764-8.424c.814-.582 1.599-.897 2.355-.945.757-.048 1.317.183 1.681.69l6.862 9.583a91.631 91.631 0 0110.526-5.643c3.55-1.608 6.512-2.81 8.887-3.605a63.829 63.829 0 016.995-1.92c2.289-.486 3.799-.771 4.529-.855a37.2 37.2 0 011.853-.174c1.456-.054 2.095.532 1.917 1.757l-1.366 13.003c-.075.877-.535 1.646-1.38 2.307a5.012 5.012 0 01-2.626 1.303c-.252.016-.829.1-1.731.252-.902.151-2.379.482-4.432.99a70.551 70.551 0 00-6.345 1.909c-2.178.763-4.68 1.84-7.506 3.233a56.097 56.097 0 00-7.898 4.709c-5.52 3.952-9.463 7.956-11.83 12.013-2.369 4.057-2.669 7.319-.901 9.787a5.995 5.995 0 002.612 2.083c1.065.445 2.461.585 4.188.419a49.302 49.302 0 004.729-.668c1.425-.28 3.455-.882 6.088-1.807a226.242 226.242 0 006.325-2.305 478.245 478.245 0 007.172-2.871 484.29 484.29 0 018.286-3.339c1.926-.747 4.588-1.693 7.987-2.837 3.4-1.144 6.145-1.943 8.236-2.397 2.092-.454 4.542-.837 7.352-1.147 2.81-.31 5.175-.26 7.094.15 1.92.41 3.829 1.144 5.728 2.2 1.899 1.056 3.498 2.492 4.797 4.306z" fill="#6669C6" fill-opacity=".12"/></svg>