<svg width="24" height="24" fill="none" xmlns="http://www.w3.org/2000/svg"><path d="M5.558 19.834l1.068-4.53c.143-.633.806-1.158 1.478-1.158h.886c3.793-.003 6.734-.766 8.848-2.294C19.95 10.328 21.005 8.306 21 5.807c.005-1.098-.188-2.016-.591-2.75a4.587 4.587 0 00-1.701-1.793C17.943.8 17.053.48 16.016.287 14.973.103 13.755.012 12.356 0L5.883.005C5.21.013 4.55.532 4.396 1.167L.03 19.834C-.12 20.472.3 21 .97 21h3.102c.67 0 1.335-.514 1.486-1.166zM8.094 9l.933-3.957c.143-.637.811-1.166 1.481-1.16l1.015-.006c1.185 0 2.086.2 2.694.596.6.387.904.996.894 1.817.017 1.235-.459 2.19-1.398 2.866-.935.672-2.231 1.009-3.913 1.009h-.76c-.67 0-1.094-.523-.946-1.165z" fill="#6669C6"/><path d="M23.409 5.907a4.61 4.61 0 00-1.701-1.81L21.538 4c.022.04.045.077.066.117.403.74.596 1.666.59 2.772.006 2.52-1.05 4.559-3.161 6.096-2.114 1.54-5.056 2.31-8.849 2.313H9.3c-.672 0-1.335.529-1.478 1.168l-1.068 4.568c-.15.658-.815 1.176-1.486 1.176H3.173l-.143.613c-.15.644.27 1.177.94 1.177h3.102c.67 0 1.335-.519 1.485-1.177l1.069-4.567c.143-.639.806-1.168 1.478-1.168h.886c3.793-.003 6.734-.773 8.849-2.313 2.11-1.538 3.166-3.576 3.16-6.095.006-1.107-.187-2.034-.59-2.773z" fill="#6669C6"/></svg>