<svg width="20" height="21" fill="none" xmlns="http://www.w3.org/2000/svg"><path d="M15.483 11.332a1.05 1.05 0 00-1.488 0l-1.677 1.677c-.778-.232-2.23-.758-3.149-1.678-.92-.92-1.446-2.37-1.677-3.148l1.677-1.677a1.051 1.051 0 000-1.488L4.96.808a1.051 1.051 0 00-1.487 0L.618 3.663c-.4.4-.625.95-.617 1.51.024 1.499.421 6.704 4.523 10.805 4.102 4.102 9.307 4.498 10.806 4.523h.03a2.08 2.08 0 001.479-.616l2.853-2.854a1.053 1.053 0 000-1.488l-4.209-4.21zm-.133 7.063c-1.314-.023-5.807-.375-9.338-3.907-3.542-3.542-3.885-8.05-3.906-9.338l2.11-2.11 2.721 2.722-1.36 1.36a1.052 1.052 0 00-.287.96c.025.121.643 2.99 2.39 4.737 1.747 1.747 4.617 2.365 4.738 2.39a1.042 1.042 0 00.96-.285l1.361-1.36 2.721 2.72-2.11 2.11z" fill="#8C8FD4"/></svg>