<svg width="260" height="260" fill="none" xmlns="http://www.w3.org/2000/svg"><path d="M203.484 185.04c-30.67 40.856-88.652 49.114-129.508 18.444-40.856-30.67-49.114-88.652-18.444-129.508 30.67-40.856 88.652-49.114 129.508-18.444 40.856 30.67 49.114 88.652 18.444 129.508zm-34.342-42.257c8.862-8.738 5.339-19.656-2.26-30.88l13.334-10.838-6.599-8.116-12.983 10.553c-1.734-2.134-3.55-4.28-5.355-6.413l13.07-10.62-6.594-8.113-13.333 10.832a344.964 344.964 0 01-4.269-5.11l.041-.034-9.097-11.2-8.667 7.049s4.987 5.901 4.796 5.891c2.671 3.289 1.633 5.91.239 7.56l-15.191 12.347c.184.228.415.532.641.904-.22-.27-.454-.561-.698-.856l-21.282 17.294c-1.153.697-3.297 1.43-5.168-.864-.007.178-4.795-5.902-4.795-5.902l-11.004 6.266 8.587 10.563c1.596 1.967 3.135 3.929 4.666 5.837l-13.483 10.965 6.59 8.109 13.343-10.846a389.718 389.718 0 005.209 6.535l-13.285 10.792 6.599 8.116 13.464-10.94c11.876 13.01 23.078 19.768 36.856 10.538 11.096-7.429 11.755-16.025 7.318-25.283 6.221 2.759 12.835 2.27 19.31-4.136zm-38.068 12.082c-10.075 8.196-22.957-9.993-27.434-15.49l17.871-14.521c4.471 5.503 20.075 21.468 9.563 30.011zm22.141-24.265c-9.171 7.45-19.801-7.813-23.526-12.395l16.206-13.171c3.726 4.582 16.883 17.791 7.32 25.566z" fill="url(#paint0_linear)" fill-opacity=".15"/><defs><linearGradient id="paint0_linear" x1="201.878" y1="156.364" x2="30.808" y2="27.947" gradientUnits="userSpaceOnUse"><stop stop-color="#6669C6"/><stop offset="1" stop-color="#6669C6" stop-opacity="0"/></linearGradient></defs></svg>