<svg width="36" height="36" fill="none" xmlns="http://www.w3.org/2000/svg"><path d="M18 36C8.058 36 0 27.942 0 18S8.058 0 18 0s18 8.058 18 18-8.058 18-18 18zm7.414-14.124c-.028-.248-.171-.815-.543-.96-.185-.073-.343-.015-.413.116-.115.203-.03.596.185.945.214.35.414.524.557.524.143 0 .271-.174.214-.625zm-2 .99c-.228-.205-.485-.306-.714-.306a.551.551 0 00-.458.202c-.256.32-.141.902.26 1.252.17.16.427.248.67.248a.744.744 0 00.585-.262c.23-.321.1-.756-.342-1.136v.002zm-15.539-6.11c0 5.526 4.399 10.006 9.826 10.006 1.443 0 2.87-.276 4.971-.292 1.871 0 3.927.67 6.184 2.706.229.203.529-.059.329-.305-2.214-2.865-4.27-3.403-6.327-3.87-2.515-.566-3.8-1.991-4.7-3.578-.172-.32-.257-.26-.272.147a9.075 9.075 0 00.13 1.788h-.3c-3.585 0-6.499-2.966-6.499-6.618 0-3.65 2.913-6.615 6.498-6.615 3.586 0 6.5 2.967 6.5 6.617 0 .262-.015.524-.043.772-.486-.088-1.414-.101-2.071-.044-.243.03-.214.145-.028.175 2.142.407 3.613 1.759 3.955 4.218.015.058.085.072.115.028a10.209 10.209 0 001.385-5.134c0-5.527-4.398-10.007-9.827-10.007-5.427 0-9.826 4.48-9.826 10.006z" fill="#FFA200" fill-opacity=".8"/></svg>