<svg width="22" height="21" fill="none" xmlns="http://www.w3.org/2000/svg"><path d="M12.345 4.758H8.56v5.781h3.813a3.075 3.075 0 002.195-.788c.6-.54.96-1.295 1.005-2.1a3.043 3.043 0 00-1.01-2.114 3.064 3.064 0 00-2.217-.78z" fill="#8C8FD4"/><path d="M10.535 0C8.45 0 6.415.616 4.682 1.77a10.507 10.507 0 00-3.88 4.712 10.468 10.468 0 002.284 11.443 10.566 10.566 0 0011.48 2.276 10.527 10.527 0 004.728-3.867 10.475 10.475 0 00-1.31-13.259A10.552 10.552 0 0010.534 0zm1.81 12.18H8.56v.945h5.459a.66.66 0 01.658.656.655.655 0 01-.658.656h-5.46v3.282a.819.819 0 01-.823.82.825.825 0 01-.823-.82v-3.282H6.09a.66.66 0 01-.658-.656.655.655 0 01.658-.656h.797v-.945H6.09a.824.824 0 01-.823-.82.82.82 0 01.823-.82h.797V3.937a.819.819 0 01.823-.82h4.609a4.71 4.71 0 013.363 1.264 4.679 4.679 0 011.483 3.263 4.685 4.685 0 01-1.474 3.256 4.717 4.717 0 01-3.346 1.279z" fill="#8C8FD4"/></svg>