<svg width="21" height="21" fill="none" xmlns="http://www.w3.org/2000/svg"><path fill-rule="evenodd" clip-rule="evenodd" d="M10.43 21C4.67 21 0 16.3 0 10.5S4.67 0 10.43 0s10.429 4.7 10.429 10.5S16.189 21 10.429 21zm4.236-8.43c0-1.656-1.027-2.591-3.43-3.174V6.482c.743.154 1.454.476 2.15.982l.885-1.44A6.162 6.162 0 0011.3 4.857v-.92H9.924v.889c-1.977.153-3.32 1.288-3.32 2.944 0 1.732 1.075 2.575 3.383 3.158v3.006c-1.028-.154-1.881-.614-2.783-1.32L6.192 14.01a7.465 7.465 0 003.732 1.519v1.533h1.375v-1.518c2.008-.17 3.367-1.289 3.367-2.975zm-4.68-3.496C8.77 8.722 8.47 8.307 8.47 7.663c0-.674.522-1.21 1.518-1.288v2.699zm2.815 3.603c0 .736-.57 1.242-1.565 1.319V11.22c1.233.353 1.565.766 1.565 1.456z" fill="#8C8FD4"/></svg>