<svg width="26" height="26" fill="none" xmlns="http://www.w3.org/2000/svg"><path d="M22.998 21.292a12.985 12.985 0 002.546-11.711A12.987 12.987 0 0017.412.77 13.01 13.01 0 005.524 2.363 12.993 12.993 0 000 13c0 3.032 1.07 5.968 3.021 8.291l-.019.016c.065.078.14.145.207.222.083.095.173.185.26.278.26.282.528.554.808.808.086.078.174.15.26.225.298.256.604.5.92.726.041.028.078.064.12.093v-.012a12.925 12.925 0 0014.867 0v.012c.041-.03.077-.065.119-.093.316-.228.623-.47.92-.726.086-.075.175-.148.26-.225.28-.255.548-.526.809-.808.086-.093.175-.183.26-.278.066-.077.141-.144.206-.223l-.02-.015zm-9.989-15.72a4.184 4.184 0 013.864 2.58 4.175 4.175 0 01-3.048 5.697 4.184 4.184 0 01-4.293-1.777 4.176 4.176 0 013.477-6.5zm-7.427 15.72a4.637 4.637 0 014.64-4.577h5.575a4.644 4.644 0 014.64 4.577 11.1 11.1 0 01-14.855 0z" fill="#6669C6"/></svg>