<svg width="50" height="16" fill="none" xmlns="http://www.w3.org/2000/svg"><path d="M36.344.627A10.522 10.522 0 0032.714 0c-3.995 0-6.819 2.019-6.836 4.908-.033 2.123 2.002 3.32 3.54 4.036 1.579.733 2.107 1.189 2.1 1.839-.009 1.002-1.263 1.448-2.418 1.448-1.605 0-2.475-.218-3.817-.78l-.499-.237-.568 3.338c.976.398 2.726.748 4.532.78 4.257 0 7.032-2 7.063-5.087.033-1.692-1.056-2.976-3.377-4.035-1.4-.683-2.276-1.149-2.276-1.849 0-.619.748-1.269 2.31-1.269a7.442 7.442 0 013.027.561l.383.17L36.44.61l-.095.017zM46.73.277h-3.125c-.977 0-1.702.26-2.133 1.23L35.466 15.12h4.248l.856-2.23 5.183.009c.13.52.495 2.22.495 2.22H50L46.73.277zM20.125.155h4.045l-2.53 14.85h-4.046L20.125.147v.008zM9.839 8.333l.414 2.067L14.216.277h4.289l-6.382 14.818h-4.27l-3.5-12.548a.792.792 0 00-.383-.495A17.086 17.086 0 000 .578l.048-.31h6.527c.88.032 1.595.31 1.84 1.254l1.424 6.819v-.008zm31.884 1.522l1.62-4.158c-.024.04.334-.855.537-1.417l.276 1.276.938 4.29h-3.37v.009z" fill="#6669C6"/></svg>